<?xml version="1.0" encoding="UTF-8"?>
<svg version="1.1" xmlns="http://www.w3.org/2000/svg" width="544" height="544">
<path d="M0 0 C65.67 0 131.34 0 199 0 C199.16121214 59.68879368 199.16121214 59.68879368 199.1953125 84.86523438 C199.20314142 90.61613002 199.21122261 96.36702523 199.21972656 102.11791992 C199.22078156 102.83848491 199.22183655 103.5590499 199.22292352 104.30145019 C199.24021778 115.8633357 199.27169471 127.42513985 199.30861118 138.98697747 C199.34630675 150.89406274 199.36829551 162.80110608 199.37635398 174.70824856 C199.38130182 181.37883644 199.39349382 188.04921974 199.42292023 194.71975899 C199.65349383 249.14171631 199.65349383 249.14171631 195 274 C194.67093784 275.76672404 194.67093784 275.76672404 194.33522797 277.56913948 C189.63196968 302.31607658 181.88833314 326.31174857 170.95458984 349.01708984 C169.60107958 351.82865259 168.29792065 354.66242563 167 357.5 C166.443125 358.69109375 166.443125 358.69109375 165.875 359.90625 C165.03022194 361.92768322 164.50662097 363.87352512 164 366 C165.93761483 365.99861731 165.93761483 365.99861731 167.9143734 365.99720669 C198.55145408 365.9755667 229.1885327 365.95906844 259.82561918 365.94893467 C263.59338155 365.94768391 267.36114391 365.94638959 271.12890625 365.94506836 C272.25408578 365.94467489 272.25408578 365.94467489 273.40199621 365.94427348 C285.56095058 365.93991764 297.71990024 365.93203056 309.87885182 365.9228472 C322.347418 365.91350827 334.81598172 365.90794388 347.28455126 365.90591151 C354.98341422 365.90453678 362.68226386 365.90018888 370.38112272 365.89208353 C376.27642388 365.88619169 382.17171813 365.88554165 388.06702232 365.88689232 C390.49146927 365.88661599 392.91591669 365.88461088 395.34036064 365.88079453 C398.63711282 365.87585728 401.93380692 365.87700186 405.2305603 365.87974548 C406.20136264 365.87683264 407.17216498 365.8739198 408.17238557 365.87091869 C409.48985715 365.87390526 409.48985715 365.87390526 410.83394432 365.87695217 C411.5956633 365.87657245 412.35738229 365.87619273 413.14218366 365.8758015 C415 366 415 366 417 367 C417 425.41 417 483.82 417 544 C279.39 544 141.78 544 0 544 C0 364.48 0 184.96 0 0 Z M44 117 C44 243.06 44 369.12 44 499 C44.33 499 44.66 499 45 499 C45 372.94 45 246.88 45 117 C44.67 117 44.34 117 44 117 Z " fill="#FEFEFE" transform="translate(64,0)"/>
<path d="M0 0 C1.64597168 0.0080365 1.64597168 0.0080365 3.32519531 0.01623535 C5.99813103 0.0300659 8.67089676 0.04948569 11.34375 0.07421875 C11.39065009 25.23220927 11.42582655 50.39019316 11.44737434 75.54821873 C11.45764912 87.23178641 11.47163605 98.9153268 11.49462891 110.59887695 C11.51467991 120.79249289 11.52749397 130.98608904 11.53192699 141.17972416 C11.53451471 146.56784991 11.54051597 151.9559191 11.55521011 157.34402657 C11.73584319 226.35826009 -0.04829055 284.58721633 -46.26269531 338.41870117 C-56.35618939 350.40958823 -51.70400975 346.31597223 -52.65625 371.07421875 C40.73375 371.07421875 134.12375 371.07421875 230.34375 371.07421875 C230.34375 387.24421875 230.34375 403.41421875 230.34375 420.07421875 C229.68375 420.07421875 229.02375 420.07421875 228.34375 420.07421875 C228.3025 420.98171875 228.26125 421.88921875 228.21875 422.82421875 C226.73763008 432.96577596 220.13563165 442.52949409 212.203125 448.75390625 C199.72618143 457.05809717 184.40214202 458.23458441 169.82775879 458.19447327 C168.68569583 458.19532769 167.54363288 458.19618212 166.36696196 458.19706243 C162.54996376 458.19870617 158.73300976 458.19321396 154.91601562 458.18774414 C152.1759539 458.18690464 149.43589303 458.18757652 146.6958313 458.18818665 C140.80169723 458.18871005 134.90757427 458.18558244 129.01344299 458.17994881 C120.49160336 458.17180891 111.96976908 458.16921603 103.44792598 458.16796082 C89.62055439 458.16577421 75.7931887 458.15912473 61.96582031 458.1496582 C48.53678415 458.14047397 35.1077496 458.13339808 21.67871094 458.12915039 C20.85042795 458.12888767 20.02214497 458.12862494 19.16876251 458.12835426 C15.01335578 458.12704919 10.85794905 458.12578549 6.7025423 458.12454236 C-27.75039272 458.11418193 -62.20332072 458.09657425 -96.65625 458.07421875 C-96.74785684 408.26368771 -96.81831479 358.45316521 -96.86051132 308.64256647 C-96.86551399 302.75853701 -96.87069129 296.87450772 -96.87597656 290.99047852 C-96.87755043 289.23341309 -96.87755043 289.23341309 -96.87915608 287.4408514 C-96.89654911 268.48787021 -96.92808073 249.53493769 -96.96486118 230.58198535 C-97.00230126 211.12649245 -97.02449234 191.671025 -97.03260398 172.21549755 C-97.03808538 160.21575757 -97.05538193 148.21615513 -97.08791587 136.21645749 C-97.1091016 127.98162695 -97.11544085 119.74686726 -97.11025551 111.51201146 C-97.10770006 106.76485928 -97.11154624 102.01794703 -97.1330719 97.27083778 C-97.15267411 92.91588107 -97.1534323 88.56132348 -97.13984558 84.20634759 C-97.13816875 82.63946118 -97.14312659 81.07254888 -97.15578273 79.50571268 C-97.30130822 60.36022281 -92.45588547 42.32304776 -78.90478516 28.19946289 C-57.69692214 6.96649757 -29.35069745 -0.27636559 0 0 Z " fill="#333333" transform="translate(205.65625,40.92578125)"/>
</svg>
